<svg width="128" height="64" viewBox="0 0 128 64" fill="none" xmlns="http://www.w3.org/2000/svg">
  <!-- 铁路轨道 -->
  <path d="M0 32L128 32" stroke="#757575" stroke-width="4"/>
  <path d="M0 28L128 28" stroke="#616161" stroke-width="2"/>
  <path d="M0 36L128 36" stroke="#616161" stroke-width="2"/>
  
  <!-- 枕木 -->
  <rect x="0" y="24" width="8" height="16" fill="#8D6E63"/>
  <rect x="16" y="24" width="8" height="16" fill="#8D6E63"/>
  <rect x="32" y="24" width="8" height="16" fill="#8D6E63"/>
  <rect x="48" y="24" width="8" height="16" fill="#8D6E63"/>
  <rect x="64" y="24" width="8" height="16" fill="#8D6E63"/>
  <rect x="80" y="24" width="8" height="16" fill="#8D6E63"/>
  <rect x="96" y="24" width="8" height="16" fill="#8D6E63"/>
  <rect x="112" y="24" width="8" height="16" fill="#8D6E63"/>
  <rect x="128" y="24" width="8" height="16" fill="#8D6E63"/>
  
  <!-- 铁路道床 -->
  <rect x="0" y="20" width="128" height="24" fill="#5D4037"/>
  
  <!-- 铁路细节 -->
  <path d="M0 20L128 20" stroke="#4E342E" stroke-width="2"/>
  <path d="M0 44L128 44" stroke="#4E342E" stroke-width="2"/>
</svg>