<svg width="200" height="40" viewBox="0 0 200 40" xmlns="http://www.w3.org/2000/svg">
  <!-- 铁轨基础 -->
  <rect x="0" y="25" width="200" height="5" fill="#444444" />
  
  <!-- 铁轨 -->
  <rect x="10" y="20" width="180" height="2" fill="#666666" />
  <rect x="10" y="30" width="180" height="2" fill="#666666" />
  
  <!-- 铁轨枕木 -->
  <rect x="0" y="22" width="15" height="8" fill="#888888" />
  <rect x="25" y="22" width="15" height="8" fill="#888888" />
  <rect x="50" y="22" width="15" height="8" fill="#888888" />
  <rect x="75" y="22" width="15" height="8" fill="#888888" />
  <rect x="100" y="22" width="15" height="8" fill="#888888" />
  <rect x="125" y="22" width="15" height="8" fill="#888888" />
  <rect x="150" y="22" width="15" height="8" fill="#888888" />
  <rect x="175" y="22" width="15" height="8" fill="#888888" />
  
  <!-- 铁轨细节 -->
  <circle cx="10" cy="25" r="2" fill="#333333" />
  <circle cx="190" cy="25" r="2" fill="#333333" />
  
  <!-- 铁轨连接点 -->
  <rect x="45" y="19" width="5" height="12" fill="#555555" />
  <rect x="95" y="19" width="5" height="12" fill="#555555" />
  <rect x="145" y="19" width="5" height="12" fill="#555555" />
</svg>