<svg width="128" height="128" viewBox="0 0 128 128" fill="none" xmlns="http://www.w3.org/2000/svg">
  <!-- 农场主体 -->
  <rect x="24" y="60" width="80" height="48" rx="2" fill="#8D6E63"/>
  <rect x="28" y="64" width="72" height="40" rx="1" fill="#795548"/>
  
  <!-- 屋顶 -->
  <path d="M20 60L64 40L108 60" fill="#A1887F"/>
  
  <!-- 门 -->
  <rect x="56" y="84" width="16" height="24" fill="#5D4037"/>
  <rect x="62" y="92" width="4" height="16" fill="#4E342E"/>
  
  <!-- 窗户 -->
  <rect x="32" y="72" width="12" height="8" fill="#81C784" opacity="0.3"/>
  <rect x="84" y="72" width="12" height="8" fill="#81C784" opacity="0.3"/>
  
  <!-- 农田 -->
  <rect x="16" y="108" width="32" height="16" fill="#66BB6A"/>
  <rect x="64" y="108" width="48" height="16" fill="#66BB6A"/>
  
  <!-- 农作物 -->
  <path d="M24 108L24 96" stroke="#43A047" stroke-width="2"/>
  <path d="M32 108L32 96" stroke="#43A047" stroke-width="2"/>
  <path d="M40 108L40 96" stroke="#43A047" stroke-width="2"/>
  
  <path d="M72 108L72 96" stroke="#43A047" stroke-width="2"/>
  <path d="M80 108L80 96" stroke="#43A047" stroke-width="2"/>
  <path d="M88 108L88 96" stroke="#43A047" stroke-width="2"/>
  <path d="M96 108L96 96" stroke="#43A047" stroke-width="2"/>
  <path d="M104 108L104 96" stroke="#43A047" stroke-width="2"/>
  
  <!-- 细节 -->
  <path d="M24 60L24 108L104 108L104 60" stroke="#6D4C41" stroke-width="2"/>
  <path d="M28 64L28 104L100 104L100 64" stroke="#5D4037" stroke-width="1"/>
  <path d="M40 60L40 108" stroke="#6D4C41" stroke-width="1"/>
  <path d="M56 60L56 108" stroke="#6D4C41" stroke-width="1"/>
  <path d="M72 60L72 108" stroke="#6D4C41" stroke-width="1"/>
  <path d="M88 60L88 108" stroke="#6D4C41" stroke-width="1"/>
  
  <!-- 烟囱 -->
  <rect x="32" y="44" width="6" height="16" fill="#6D4C41"/>
  <circle cx="35" cy="44" r="3" fill="#795548"/>
  
  <!-- 烟雾效果 -->
  <circle cx="35" cy="40" r="3" fill="#E0E0E0" opacity="0.6"/>
  <circle cx="38" cy="38" r="2" fill="#F5F5F5" opacity="0.5"/>
</svg>