<svg width="100" height="70" viewBox="0 0 100 70" xmlns="http://www.w3.org/2000/svg">
  <!-- 手推车车架 -->
  <rect x="20" y="40" width="60" height="10" fill="#666666" />
  
  <!-- 手推车车斗 -->
  <polygon points="20,40 25,30 75,30 80,40" fill="#777777" />
  <rect x="25" y="30" width="50" height="10" fill="#555555" />
  
  <!-- 手推车把手 -->
  <line x1="80" y1="40" x2="90" y2="20" stroke="#444444" stroke-width="3" />
  <line x1="90" y1="20" x2="95" y2="25" stroke="#444444" stroke-width="3" />
  
  <!-- 手推车车轮 -->
  <circle cx="30" cy="55" r="8" fill="#333333" />
  <circle cx="30" cy="55" r="5" fill="#222222" />
  <circle cx="30" cy="55" r="2" fill="#555555" />
  
  <circle cx="70" cy="55" r="8" fill="#333333" />
  <circle cx="70" cy="55" r="5" fill="#222222" />
  <circle cx="70" cy="55" r="2" fill="#555555" />
  
  <!-- 手推车细节 -->
  <rect x="25" y="42" width="8" height="6" fill="#888888" />
  <rect x="67" y="42" width="8" height="6" fill="#888888" />
  
  <!-- 手推车车斗细节 -->
  <rect x="35" y="32" width="2" height="8" fill="#666666" />
  <rect x="45" y="32" width="2" height="8" fill="#666666" />
  <rect x="55" y="32" width="2" height="8" fill="#666666" />
</svg>