<svg width="120" height="80" viewBox="0 0 120 80" xmlns="http://www.w3.org/2000/svg">
  <!-- 拖拉机主体 -->
  <rect x="20" y="40" width="80" height="15" rx="2" fill="#666666" />
  
  <!-- 拖拉机引擎盖 -->
  <polygon points="20,40 40,30 100,30 100,40" fill="#555555" />
  
  <!-- 拖拉机驾驶室 -->
  <rect x="60" y="20" width="30" height="20" rx="2" fill="#777777" />
  <rect x="65" y="25" width="20" height="10" fill="#444444" />
  
  <!-- 拖拉机车轮 -->
  <circle cx="30" cy="55" r="10" fill="#333333" />
  <circle cx="30" cy="55" r="6" fill="#222222" />
  <circle cx="30" cy="55" r="2" fill="#555555" />
  
  <circle cx="90" cy="55" r="10" fill="#333333" />
  <circle cx="90" cy="55" r="6" fill="#222222" />
  <circle cx="90" cy="55" r="2" fill="#555555" />
  
  <!-- 拖拉机排气管 -->
  <rect x="85" y="15" width="5" height="10" fill="#444444" />
  <circle cx="87.5" cy="15" r="2.5" fill="#333333" />
  
  <!-- 拖拉机前灯 -->
  <circle cx="45" cy="35" r="3" fill="#FFFF00" />
  <circle cx="95" cy="35" r="3" fill="#FFFF00" />
  
  <!-- 拖拉机细节 -->
  <rect x="25" y="45" width="10" height="5" fill="#888888" />
  <rect x="35" y="45" width="10" height="5" fill="#888888" />
  <rect x="45" y="45" width="10" height="5" fill="#888888" />
  <rect x="55" y="45" width="10" height="5" fill="#888888" />
  <rect x="65" y="45" width="10" height="5" fill="#888888" />
  <rect x="75" y="45" width="10" height="5" fill="#888888" />
</svg>