<svg width="160" height="80" viewBox="0 0 160 80" xmlns="http://www.w3.org/2000/svg">
  <!-- 卡车底盘 -->
  <rect x="20" y="50" width="120" height="10" fill="#444444" />
  
  <!-- 卡车货箱 -->
  <rect x="60" y="30" width="80" height="25" fill="#666666" />
  <rect x="60" y="30" width="80" height="5" fill="#555555" />
  <rect x="65" y="35" width="70" height="15" fill="#444444" />
  
  <!-- 卡车驾驶室 -->
  <polygon points="20,50 20,35 40,25 60,25 60,50" fill="#777777" />
  <rect x="45" y="30" width="10" height="10" fill="#444444" />
  
  <!-- 卡车车轮 -->
  <circle cx="30" cy="60" r="10" fill="#333333" />
  <circle cx="30" cy="60" r="6" fill="#222222" />
  <circle cx="30" cy="60" r="2" fill="#555555" />
  
  <circle cx="70" cy="60" r="10" fill="#333333" />
  <circle cx="70" cy="60" r="6" fill="#222222" />
  <circle cx="70" cy="60" r="2" fill="#555555" />
  
  <circle cx="110" cy="60" r="10" fill="#333333" />
  <circle cx="110" cy="60" r="6" fill="#222222" />
  <circle cx="110" cy="60" r="2" fill="#555555" />
  
  <!-- 卡车前灯 -->
  <circle cx="25" cy="45" r="3" fill="#FFFF00" />
  
  <!-- 卡车排气管 -->
  <rect x="55" y="20" width="5" height="5" fill="#444444" />
  <circle cx="57.5" cy="20" r="2.5" fill="#333333" />
  
  <!-- 卡车细节 -->
  <rect x="25" y="52" width="8" height="6" fill="#888888" />
  <rect x="65" y="52" width="8" height="6" fill="#888888" />
  <rect x="105" y="52" width="8" height="6" fill="#888888" />
  
  <!-- 卡车货箱细节 -->
  <rect x="70" y="35" width="2" height="15" fill="#555555" />
  <rect x="90" y="35" width="2" height="15" fill="#555555" />
  <rect x="110" y="35" width="2" height="15" fill="#555555" />
</svg>