<svg width="48" height="48" viewBox="0 0 48 48" fill="none" xmlns="http://www.w3.org/2000/svg">
  <path d="M24 8C18 8 12 14 12 20C12 26 18 32 24 32C30 32 36 26 36 20C36 14 30 8 24 8Z" fill="#FF6B6B"/>
  <path d="M24 4C16 4 8 12 8 20C8 28 16 36 24 36C32 36 40 28 40 20C40 12 32 4 24 4Z" fill="#FF5252"/>
  <path d="M24 12C20 12 16 16 16 20C16 24 20 28 24 28C28 28 32 24 32 20C32 16 28 12 24 12Z" fill="#FF8787"/>
  <path d="M24 16C22 16 20 18 20 20C20 22 22 24 24 24C26 24 28 22 28 20C28 18 26 16 24 16Z" fill="#FFCDD2"/>
  <path d="M18 24L24 30L30 24" stroke="#FF5252" stroke-width="2" stroke-linecap="round" stroke-linejoin="round"/>
  <path d="M16 18L24 24L32 18" stroke="#FF8787" stroke-width="2" stroke-linecap="round" stroke-linejoin="round"/>
</svg>