<svg width="48" height="48" viewBox="0 0 48 48" fill="none" xmlns="http://www.w3.org/2000/svg">
  <ellipse cx="24" cy="32" rx="16" ry="8" fill="#2E7D32"/>
  <ellipse cx="24" cy="32" rx="14" ry="7" fill="#1B5E20"/>
  <rect x="20" y="12" width="8" height="20" rx="2" fill="#388E3C"/>
  <rect x="22" y="8" width="4" height="4" rx="1" fill="#388E3C"/>
  <path d="M16 32C16 28.6863 18.6863 26 22 26H26C29.3137 26 32 28.6863 32 32" stroke="#4CAF50" stroke-width="2" stroke-linecap="round"/>
  <path d="M18 36C18 34.3431 19.3431 33 21 33H27C28.6569 33 30 34.3431 30 36" stroke="#4CAF50" stroke-width="2" stroke-linecap="round"/>
  <path d="M20 40C20 38.8954 20.8954 38 22 38H26C27.1046 38 28 38.8954 28 40" stroke="#4CAF50" stroke-width="2" stroke-linecap="round"/>
  <circle cx="24" cy="20" r="2" fill="#4CAF50"/>
  <circle cx="24" cy="24" r="2" fill="#4CAF50"/>
  <circle cx="24" cy="28" r="2" fill="#4CAF50"/>
</svg>